<?xml version="1.0" standalone="no"?>
<!DOCTYPE svg PUBLIC "-//W3C//DTD SVG 20010904//EN"
 "http://www.w3.org/TR/2001/REC-SVG-20010904/DTD/svg10.dtd">
<svg version="1.0" xmlns="http://www.w3.org/2000/svg"
 width="260.000000pt" height="260.000000pt" viewBox="0 0 260.000000 260.000000"
 preserveAspectRatio="xMidYMid meet">
<metadata>
Created by potrace 1.14, written by Peter Selinger 2001-2017
</metadata>
<g transform="translate(0.000000,260.000000) scale(0.100000,-0.100000)"
fill="#000000" stroke="none">
<path d="M1548 2418 c-14 -21 -18 -22 -49 -11 -56 20 -139 28 -139 13 0 -9
-13 -10 -47 -5 -91 13 -263 17 -263 6 0 -6 -17 -13 -37 -16 -96 -15 -159 -29
-170 -38 -7 -5 -19 -7 -27 -4 -9 4 -32 -11 -57 -36 -25 -25 -52 -43 -68 -44
-38 -2 -101 -26 -101 -38 0 -6 -16 -26 -35 -45 -19 -19 -35 -39 -35 -45 0 -7
-10 -20 -21 -31 -12 -10 -37 -43 -56 -72 -19 -29 -39 -50 -44 -46 -6 3 -26 -9
-45 -27 -41 -39 -70 -92 -54 -97 15 -5 12 -33 -6 -46 -8 -6 -16 -19 -17 -28
-2 -9 -8 -22 -14 -29 -15 -19 -43 -88 -43 -107 0 -9 -10 -26 -21 -38 -30 -32
-40 -96 -22 -131 19 -36 22 -131 5 -141 -7 -5 -20 -32 -31 -61 -10 -29 -23
-57 -30 -64 -6 -6 -11 -22 -11 -35 0 -13 -9 -35 -20 -49 -26 -33 -43 -94 -45
-166 -2 -52 0 -57 16 -52 15 5 19 1 19 -17 0 -13 -7 -33 -15 -44 -18 -23 -19
-66 -3 -82 21 -21 10 -131 -17 -178 -18 -31 -23 -50 -19 -76 4 -20 -1 -67 -10
-106 -11 -51 -16 -121 -16 -246 l0 -175 35 -7 c20 -3 88 -4 153 0 64 3 195 6
291 6 96 0 171 3 168 7 -11 10 14 33 35 33 15 0 19 -5 15 -20 -5 -18 0 -20 55
-20 32 0 57 4 54 9 -7 10 42 33 55 26 5 -4 9 -12 9 -19 0 -14 463 -23 1313
-26 l417 -1 0 454 c0 471 -10 635 -47 731 -8 23 -23 88 -32 146 -10 58 -23
115 -29 127 -7 12 -12 32 -12 44 0 30 -22 89 -33 89 -4 0 -7 8 -5 18 2 10 -7
41 -19 68 -11 27 -26 69 -33 94 -13 51 -32 93 -58 131 -9 14 -30 50 -47 80
-31 56 -70 97 -153 164 -28 22 -55 51 -61 65 -16 35 -114 137 -118 123 -3 -7
1 -21 7 -32 11 -21 10 -21 -27 -4 -21 10 -39 21 -41 26 -2 4 -12 7 -22 7 -10
0 -20 3 -22 8 -9 21 -88 62 -119 62 -19 0 -43 6 -54 14 -11 7 -27 13 -35 13
-8 0 -29 3 -46 7 -26 6 -34 3 -46 -16z m-273 -374 c26 -5 33 -9 23 -15 -9 -6
-10 -9 0 -9 18 0 14 -28 -8 -52 -11 -12 -20 -17 -20 -12 0 16 -71 14 -77 -2
-3 -8 -9 -11 -14 -8 -5 3 -9 -2 -9 -10 0 -9 -7 -16 -15 -16 -13 0 -14 4 -5 21
7 11 9 27 6 35 -3 7 3 19 13 26 10 7 19 16 19 21 3 15 27 36 39 32 6 -2 28 -7
48 -11z m85 6 c0 -5 -9 -10 -21 -10 -11 0 -17 5 -14 10 3 6 13 10 21 10 8 0
14 -4 14 -10z m-247 -114 c17 -13 17 -15 2 -24 -10 -5 -15 -17 -13 -28 3 -14
12 -19 36 -17 30 1 32 0 15 -13 -10 -7 -24 -14 -30 -14 -22 0 -14 -18 10 -23
12 -2 0 -2 -28 1 -32 2 -58 12 -73 25 -20 18 -24 19 -32 7 -8 -12 -10 -11 -10
6 0 26 18 44 45 44 15 0 17 2 6 9 -10 7 -8 12 10 25 28 19 38 20 62 2z m-270
-28 c28 -14 57 -69 57 -107 0 -55 -36 -118 -84 -146 -99 -58 -196 -6 -196 105
0 48 17 84 58 123 47 45 109 54 165 25z m696 -2 c43 -23 65 -64 65 -123 1 -89
-66 -153 -161 -153 -46 0 -58 4 -89 33 -97 89 -22 256 114 257 24 0 56 -7 71
-14z m175 -182 c8 -22 -32 -17 -44 5 -5 11 -10 22 -10 25 0 11 49 -17 54 -30z
m-594 -2 c0 -4 3 -18 7 -31 5 -18 3 -22 -7 -16 -13 8 9 -26 70 -107 19 -26 39
-47 43 -48 13 0 -4 44 -19 53 -17 10 -19 37 -3 37 6 0 9 -7 5 -15 -4 -11 0
-14 17 -11 12 3 22 5 22 6 0 1 17 3 38 5 20 1 37 0 37 -4 0 -4 10 -8 22 -8 13
-1 24 -6 25 -10 2 -4 30 -7 63 -6 37 1 58 -2 55 -8 -4 -5 -10 -7 -15 -4 -8 5
-60 -36 -60 -48 0 -4 7 -4 16 0 12 4 15 2 12 -8 -3 -9 -15 -13 -31 -11 -20 3
-26 0 -21 -11 7 -19 -27 -32 -38 -15 -6 10 -10 10 -18 -2 -8 -13 -11 -12 -16
5 -5 21 -44 32 -44 13 0 -5 -7 -7 -16 -4 -14 6 -15 4 -4 -9 10 -12 15 -13 21
-4 12 20 41 -9 30 -30 -10 -19 0 -51 23 -70 30 -25 17 -33 -51 -30 -38 2 -171
2 -296 1 -178 -2 -228 -5 -224 -14 8 -23 -11 -44 -43 -46 -51 -4 -61 11 -39
58 11 22 22 60 26 86 6 44 7 46 35 42 18 -3 27 0 25 6 -2 6 -13 10 -25 8 -13
-2 -23 4 -27 18 -3 11 -13 20 -21 20 -8 0 -17 7 -20 15 -5 11 -10 13 -19 5 -6
-5 -15 -7 -18 -3 -12 11 -8 23 8 23 9 0 15 9 15 21 0 15 4 19 16 15 9 -3 30
-6 47 -7 18 0 26 -3 20 -6 -10 -3 -9 -8 2 -20 8 -8 13 -18 10 -23 -12 -19 38
-16 63 5 1 1 -2 14 -8 29 -5 15 -6 25 -1 22 5 -4 24 9 42 26 28 28 34 30 37
16 3 -15 8 -13 29 12 20 24 30 29 51 23 21 -5 24 -3 19 11 -4 10 -3 15 3 11 6
-3 10 -1 10 5 0 6 5 8 10 5 6 -3 10 -2 10 3 0 15 -43 23 -51 10 -4 -7 -5 -16
-3 -20 3 -4 0 -8 -6 -8 -7 0 -10 7 -7 14 4 10 1 13 -9 9 -9 -3 -12 0 -9 9 5
11 27 15 95 16 50 1 90 -2 90 -6z m126 -6 c3 -7 -4 -29 -15 -47 -14 -23 -21
-28 -21 -16 0 10 -4 16 -8 13 -4 -2 -6 11 -4 30 3 25 9 34 23 34 11 0 22 -6
25 -14z m594 -106 c-13 -24 -26 -26 -34 -5 -10 27 4 46 25 34 15 -8 17 -14 9
-29z m-540 15 c11 -13 10 -14 -4 -9 -9 3 -16 10 -16 15 0 13 6 11 20 -6z
m-760 -24 c0 -14 -18 -23 -30 -16 -6 4 -8 11 -5 16 8 12 35 12 35 0z m913
-148 c-3 -7 -9 -11 -13 -8 -4 2 -5 -27 -2 -65 3 -45 1 -70 -6 -70 -5 0 -8 9
-5 20 7 27 -5 25 -17 -2 -8 -22 -9 -22 -9 4 -1 14 5 29 12 32 10 5 10 7 0 12
-7 3 -13 23 -13 44 0 29 5 39 18 42 31 7 40 5 35 -9z m-42 -180 c-8 -15 -10
-15 -11 -2 0 17 10 32 18 25 2 -3 -1 -13 -7 -23z m86 -105 c-3 -8 -6 -5 -6 6
-1 11 2 17 5 13 3 -3 4 -12 1 -19z m13 -40 c0 -13 -23 -5 -28 10 -2 7 2 10 12
6 9 -3 16 -11 16 -16z m-662 -16 c2 -12 8 -20 13 -17 5 4 9 -1 9 -10 0 -19
-35 -33 -66 -27 -21 4 -24 10 -22 44 1 37 3 39 32 36 23 -2 32 -9 34 -26z
m552 24 c0 -3 -4 -8 -10 -11 -5 -3 -10 -1 -10 4 0 6 5 11 10 11 6 0 10 -2 10
-4z m-740 -16 c0 -5 -4 -10 -10 -10 -5 0 -10 5 -10 10 0 6 5 10 10 10 6 0 10
-4 10 -10z m264 -66 c5 -14 4 -15 -9 -4 -17 14 -19 20 -6 20 5 0 12 -7 15 -16z
m-314 -38 c0 -13 -7 -29 -15 -36 -17 -14 -18 -8 -9 39 7 34 24 32 24 -3z
m-530 7 c0 -10 -5 -25 -10 -33 -7 -11 -10 -7 -10 18 0 17 5 32 10 32 6 0 10
-8 10 -17z m1260 7 c0 -5 -4 -10 -10 -10 -5 0 -10 5 -10 10 0 6 5 10 10 10 6
0 10 -4 10 -10z m187 -37 c-3 -10 -5 -4 -5 12 0 17 2 24 5 18 2 -7 2 -21 0
-30z m-200 1 c-3 -3 -12 -4 -19 -1 -8 3 -5 6 6 6 11 1 17 -2 13 -5z m-771
-150 c-4 -9 -9 -15 -11 -12 -3 3 -3 13 1 22 4 9 9 15 11 12 3 -3 3 -13 -1 -22z
m1474 -729 c0 -5 -5 -3 -10 5 -5 8 -10 20 -10 25 0 6 5 3 10 -5 5 -8 10 -19
10 -25z m20 -35 c6 -11 8 -20 6 -20 -3 0 -10 9 -16 20 -6 11 -8 20 -6 20 3 0
10 -9 16 -20z"/>
<path d="M1049 1683 c-13 -16 -12 -17 4 -4 9 7 17 15 17 17 0 8 -8 3 -21 -13z"/>
<path d="M1119 1583 c5 -10 23 -34 40 -53 41 -47 41 -17 0 33 -32 39 -58 51
-40 20z"/>
<path d="M1367 1539 c7 -7 15 -10 18 -7 3 3 -2 9 -12 12 -14 6 -15 5 -6 -5z"/>
<path d="M810 1120 c24 -8 24 -8 3 -9 -13 -1 -23 -6 -23 -12 0 -6 7 -8 16 -5
9 3 20 6 25 6 5 0 9 7 9 15 0 10 -9 15 -27 14 l-28 -1 25 -8z"/>
<path d="M105 1463 c-3 -10 -8 -45 -10 -78 -2 -33 -1 -49 1 -35 3 14 12 44 20
68 8 23 14 47 14 52 0 17 -17 11 -25 -7z"/>
<path d="M2 715 c0 -16 2 -22 5 -12 2 9 2 23 0 30 -3 6 -5 -1 -5 -18z"/>
<path d="M2 645 c0 -16 2 -22 5 -12 2 9 2 23 0 30 -3 6 -5 -1 -5 -18z"/>
</g>
</svg>
